<?xml version="1.0" encoding="UTF-8"?>
<!DOCTYPE svg PUBLIC "-//W3C//DTD SVG 1.1//EN" "http://www.w3.org/Graphics/SVG/1.1/DTD/svg11.dtd">
<svg xmlns="http://www.w3.org/2000/svg" version="1.1" width="535px" height="466px" style="shape-rendering:geometricPrecision; text-rendering:geometricPrecision; image-rendering:optimizeQuality; fill-rule:evenodd; clip-rule:evenodd" xmlns:xlink="http://www.w3.org/1999/xlink">
<g><path style="opacity:1" fill="#fefefe" d="M -0.5,-0.5 C 177.833,-0.5 356.167,-0.5 534.5,-0.5C 534.5,154.833 534.5,310.167 534.5,465.5C 356.167,465.5 177.833,465.5 -0.5,465.5C -0.5,310.167 -0.5,154.833 -0.5,-0.5 Z"/></g>
<g><path style="opacity:1" fill="#171716" d="M 276.5,141.5 C 276.814,154.913 276.481,168.246 275.5,181.5C 270.392,183.221 265.392,185.221 260.5,187.5C 259.167,187.5 258.5,186.833 258.5,185.5C 258.5,184.833 258.833,184.5 259.5,184.5C 260.492,184.672 261.158,184.338 261.5,183.5C 265.438,181.965 269.438,180.632 273.5,179.5C 273.5,167.5 273.5,155.5 273.5,143.5C 260.833,143.5 248.167,143.5 235.5,143.5C 235.5,152.5 235.5,161.5 235.5,170.5C 234.5,170.5 233.5,170.5 232.5,170.5C 232.5,170.167 232.5,169.833 232.5,169.5C 232.5,160.167 232.5,150.833 232.5,141.5C 247.167,141.5 261.833,141.5 276.5,141.5 Z"/></g>
<g><path style="opacity:1" fill="#c2c2c2" d="M 276.5,141.5 C 277.166,147.991 277.5,154.658 277.5,161.5C 277.497,168.535 276.83,175.202 275.5,181.5C 276.481,168.246 276.814,154.913 276.5,141.5 Z"/></g>
<g><path style="opacity:1" fill="#fcfcfa" d="M 261.5,183.5 C 260.515,179.366 260.182,175.032 260.5,170.5C 252.167,170.5 243.833,170.5 235.5,170.5C 235.5,161.5 235.5,152.5 235.5,143.5C 248.167,143.5 260.833,143.5 273.5,143.5C 273.5,155.5 273.5,167.5 273.5,179.5C 269.438,180.632 265.438,181.965 261.5,183.5 Z"/></g>
<g><path style="opacity:1" fill="#ecd685" d="M 235.5,171.5 C 235.5,171.167 235.5,170.833 235.5,170.5C 243.833,170.5 252.167,170.5 260.5,170.5C 260.182,175.032 260.515,179.366 261.5,183.5C 261.158,184.338 260.492,184.672 259.5,184.5C 259.5,180.167 259.5,175.833 259.5,171.5C 251.5,171.5 243.5,171.5 235.5,171.5 Z"/></g>
<g><path style="opacity:1" fill="#e8c037" d="M 235.5,171.5 C 243.5,171.5 251.5,171.5 259.5,171.5C 259.5,175.833 259.5,180.167 259.5,184.5C 258.833,184.5 258.5,184.833 258.5,185.5C 250.939,189.115 243.273,192.448 235.5,195.5C 235.5,187.5 235.5,179.5 235.5,171.5 Z"/></g>
<g><path style="opacity:1" fill="#fcc817" d="M 231.5,197.5 C 224.403,201.24 217.07,204.574 209.5,207.5C 208.5,207.5 207.5,207.5 206.5,207.5C 206.5,195.167 206.5,182.833 206.5,170.5C 214.833,170.5 223.167,170.5 231.5,170.5C 231.5,179.5 231.5,188.5 231.5,197.5 Z"/></g>
<g><path style="opacity:1" fill="#fcc911" d="M 236.5,172.5 C 243.833,172.5 251.167,172.5 258.5,172.5C 258.495,176.534 258.162,180.534 257.5,184.5C 254.245,184.014 251.578,185.014 249.5,187.5C 247.577,188.308 245.577,188.808 243.5,189C 241.99,191.755 239.657,192.921 236.5,192.5C 236.5,185.833 236.5,179.167 236.5,172.5 Z"/></g>
<g><path style="opacity:1" fill="#dec268" d="M 232.5,169.5 C 232.5,169.833 232.5,170.167 232.5,170.5C 232.827,179.682 232.493,188.682 231.5,197.5C 231.5,188.5 231.5,179.5 231.5,170.5C 223.167,170.5 214.833,170.5 206.5,170.5C 206.5,182.833 206.5,195.167 206.5,207.5C 207.5,207.5 208.5,207.5 209.5,207.5C 208.486,208.674 207.153,209.34 205.5,209.5C 205.5,196.167 205.5,182.833 205.5,169.5C 214.5,169.5 223.5,169.5 232.5,169.5 Z"/></g>
<g><path style="opacity:1" fill="#0f0f0f" d="M 277.5,185.5 C 290.385,192.882 302.885,200.882 315,209.5C 315.5,222.162 315.667,234.829 315.5,247.5C 302.5,247.5 289.5,247.5 276.5,247.5C 276.5,250.5 276.5,253.5 276.5,256.5C 301.5,256.5 326.5,256.5 351.5,256.5C 351.5,257.5 351.5,258.5 351.5,259.5C 325.5,259.5 299.5,259.5 273.5,259.5C 273.647,234.979 273.647,210.312 273.5,185.5C 274.833,185.5 276.167,185.5 277.5,185.5 Z"/></g>
<g><path style="opacity:1" fill="#fdfdfd" d="M 278.5,189.5 C 289.431,195.915 300.264,202.581 311,209.5C 311.5,221.162 311.667,232.829 311.5,244.5C 300.167,244.5 288.833,244.5 277.5,244.5C 277.17,225.992 277.503,207.659 278.5,189.5 Z"/></g>
<g><path style="opacity:1" fill="#282828" d="M 277.5,185.5 C 276.167,185.5 274.833,185.5 273.5,185.5C 273.647,210.312 273.647,234.979 273.5,259.5C 273.167,259.5 272.833,259.5 272.5,259.5C 272.5,255.833 272.5,252.167 272.5,248.5C 268.167,248.5 263.833,248.5 259.5,248.5C 261.969,247.683 264.635,247.183 267.5,247C 264.635,246.817 261.969,246.317 259.5,245.5C 259.833,245.5 260.167,245.5 260.5,245.5C 264.5,245.5 268.5,245.5 272.5,245.5C 272.5,225.167 272.5,204.833 272.5,184.5C 274.415,184.216 276.081,184.549 277.5,185.5 Z"/></g>
<g><path style="opacity:1" fill="#271703" d="M 232.5,170.5 C 233.5,170.5 234.5,170.5 235.5,170.5C 235.5,170.833 235.5,171.167 235.5,171.5C 235.5,179.5 235.5,187.5 235.5,195.5C 243.273,192.448 250.939,189.115 258.5,185.5C 258.5,186.833 259.167,187.5 260.5,187.5C 260.5,187.833 260.5,188.167 260.5,188.5C 259.209,188.263 258.209,188.596 257.5,189.5C 252.955,191.21 248.621,193.21 244.5,195.5C 241.492,196.42 238.659,197.754 236,199.5C 235.5,214.83 235.333,230.163 235.5,245.5C 243.5,245.5 251.5,245.5 259.5,245.5C 261.969,246.317 264.635,246.817 267.5,247C 264.635,247.183 261.969,247.683 259.5,248.5C 250.833,248.5 242.167,248.5 233.5,248.5C 232.833,248.5 232.5,248.167 232.5,247.5C 232.5,232.167 232.5,216.833 232.5,201.5C 230.302,201.12 228.635,201.787 227.5,203.5C 220.043,206.085 213.043,209.418 206.5,213.5C 206.167,213.5 205.833,213.5 205.5,213.5C 205.5,212.5 205.5,211.5 205.5,210.5C 205.5,210.167 205.5,209.833 205.5,209.5C 207.153,209.34 208.486,208.674 209.5,207.5C 217.07,204.574 224.403,201.24 231.5,197.5C 232.493,188.682 232.827,179.682 232.5,170.5 Z"/></g>
<g><path style="opacity:1" fill="#eedd9a" d="M 257.5,189.5 C 258.209,188.596 259.209,188.263 260.5,188.5C 260.5,207.5 260.5,226.5 260.5,245.5C 260.167,245.5 259.833,245.5 259.5,245.5C 260.154,226.47 259.487,207.803 257.5,189.5 Z"/></g>
<g><path style="opacity:1" fill="#9f833a" d="M 232.5,247.5 C 231.833,232.661 231.167,217.661 230.5,202.5C 229.583,203.127 228.583,203.461 227.5,203.5C 228.635,201.787 230.302,201.12 232.5,201.5C 232.5,216.833 232.5,232.167 232.5,247.5 Z"/></g>
<g><path style="opacity:1" fill="#e6c13b" d="M 257.5,189.5 C 259.487,207.803 260.154,226.47 259.5,245.5C 251.5,245.5 243.5,245.5 235.5,245.5C 235.333,230.163 235.5,214.83 236,199.5C 238.659,197.754 241.492,196.42 244.5,195.5C 248.621,193.21 252.955,191.21 257.5,189.5 Z"/></g>
<g><path style="opacity:1" fill="#fdc810" d="M 244.5,195.5 C 248.466,194.838 252.466,194.505 256.5,194.5C 256.312,192.897 256.812,191.563 258,190.5C 258.5,208.497 258.667,226.497 258.5,244.5C 251.167,244.5 243.833,244.5 236.5,244.5C 236.333,229.83 236.5,215.163 237,200.5C 239.192,199.601 241.358,198.601 243.5,197.5C 244.298,197.043 244.631,196.376 244.5,195.5 Z"/></g>
<g><path style="opacity:1" fill="#1d1d1d" d="M 205.5,210.5 C 205.5,211.5 205.5,212.5 205.5,213.5C 204.508,213.328 203.842,213.662 203.5,214.5C 199.503,216.166 195.503,217.833 191.5,219.5C 191.5,233.167 191.5,246.833 191.5,260.5C 181.833,260.5 172.167,260.5 162.5,260.5C 162.5,258.833 162.5,257.167 162.5,255.5C 170.833,255.5 179.167,255.5 187.5,255.5C 187.168,242.816 187.501,230.149 188.5,217.5C 194.074,214.878 199.741,212.544 205.5,210.5 Z"/></g>
<g><path style="opacity:1" fill="#fdfcda" d="M 203.5,214.5 C 203.842,213.662 204.508,213.328 205.5,213.5C 205.5,228.833 205.5,244.167 205.5,259.5C 204.833,244.5 204.167,229.5 203.5,214.5 Z"/></g>
<g><path style="opacity:1" fill="#fdc912" d="M 232.5,247.5 C 232.5,248.167 232.833,248.5 233.5,248.5C 241.65,249.493 249.983,249.826 258.5,249.5C 258.5,252.5 258.5,255.5 258.5,258.5C 241.497,258.667 224.497,258.5 207.5,258C 206.509,243.245 206.176,228.412 206.5,213.5C 213.043,209.418 220.043,206.085 227.5,203.5C 228.583,203.461 229.583,203.127 230.5,202.5C 231.167,217.661 231.833,232.661 232.5,247.5 Z"/></g>
<g><path style="opacity:1" fill="#d9d9d9" d="M 278.5,189.5 C 277.503,207.659 277.17,225.992 277.5,244.5C 288.833,244.5 300.167,244.5 311.5,244.5C 300.012,245.495 288.345,245.828 276.5,245.5C 276.167,226.488 276.5,207.488 277.5,188.5C 278.107,188.624 278.44,188.957 278.5,189.5 Z"/></g>
<g><path style="opacity:1" fill="#eecd5c" d="M 205.5,213.5 C 205.833,213.5 206.167,213.5 206.5,213.5C 206.176,228.412 206.509,243.245 207.5,258C 224.497,258.5 241.497,258.667 258.5,258.5C 258.5,255.5 258.5,252.5 258.5,249.5C 249.983,249.826 241.65,249.493 233.5,248.5C 242.167,248.5 250.833,248.5 259.5,248.5C 259.5,252.167 259.5,255.833 259.5,259.5C 241.5,259.5 223.5,259.5 205.5,259.5C 205.5,244.167 205.5,228.833 205.5,213.5 Z"/></g>
<g><path style="opacity:1" fill="#7f7f7f" d="M 351.5,256.5 C 352.434,257.568 352.768,258.901 352.5,260.5C 325.661,260.831 298.995,260.498 272.5,259.5C 272.833,259.5 273.167,259.5 273.5,259.5C 299.5,259.5 325.5,259.5 351.5,259.5C 351.5,258.5 351.5,257.5 351.5,256.5 Z"/></g>
<g><path style="opacity:1" fill="#1e1e1e" d="M 217.5,277.5 C 220.247,277.187 222.914,277.52 225.5,278.5C 223.955,279.452 222.288,279.785 220.5,279.5C 220.5,280.833 220.5,282.167 220.5,283.5C 227.167,284.167 227.167,284.833 220.5,285.5C 220.5,286.833 220.5,288.167 220.5,289.5C 222.288,289.215 223.955,289.548 225.5,290.5C 222.914,291.48 220.247,291.813 217.5,291.5C 217.5,286.833 217.5,282.167 217.5,277.5 Z"/></g>
<g><path style="opacity:1" fill="#0d0d0d" d="M 272.5,278.5 C 272.5,282.167 272.5,285.833 272.5,289.5C 274.288,289.215 275.955,289.548 277.5,290.5C 275.257,291.474 272.924,291.808 270.5,291.5C 269.903,286.706 270.57,282.373 272.5,278.5 Z"/></g>
<g><path style="opacity:1" fill="#1d1d1d" d="M 245.5,277.5 C 247.467,277.261 249.301,277.594 251,278.5C 251.688,279.332 251.521,279.998 250.5,280.5C 249.264,279.754 247.93,279.421 246.5,279.5C 246.351,280.552 246.517,281.552 247,282.5C 254.301,285.933 254.301,289.266 247,292.5C 245.338,292.612 244.171,291.946 243.5,290.5C 245.396,289.534 247.396,289.201 249.5,289.5C 249.719,288.325 249.386,287.325 248.5,286.5C 243.317,284.747 242.317,281.747 245.5,277.5 Z"/></g>
<g><path style="opacity:1" fill="#5b5b5b" d="M 281.5,278.5 C 279.598,281.337 278.931,284.671 279.5,288.5C 278.518,285.038 278.185,281.371 278.5,277.5C 279.791,277.263 280.791,277.596 281.5,278.5 Z"/></g>
<g><path style="opacity:1" fill="#101010" d="M 304.5,278.5 C 306.43,282.373 307.097,286.706 306.5,291.5C 304.57,287.627 303.903,283.294 304.5,278.5 Z"/></g>
<g><path style="opacity:1" fill="#5f5f5f" d="M 334.5,278.5 C 335.209,277.596 336.209,277.263 337.5,277.5C 337.819,282.363 337.486,287.03 336.5,291.5C 337.097,286.706 336.43,282.373 334.5,278.5 Z"/></g>
<g><path style="opacity:1" fill="#1f1f1f" d="M 257.5,277.5 C 265.33,276.495 268.496,279.828 267,287.5C 263.819,293.252 259.819,293.919 255,289.5C 253.878,284.936 254.711,280.936 257.5,277.5 Z"/></g>
<g><path style="opacity:1" fill="#e2e2e2" d="M 258.5,279.5 C 264.333,279.932 265.999,282.932 263.5,288.5C 261.604,289.466 259.604,289.799 257.5,289.5C 255.885,285.879 256.219,282.546 258.5,279.5 Z"/></g>
<g><path style="opacity:1" fill="#1f1f1f" d="M 341.5,277.5 C 343.467,277.261 345.301,277.594 347,278.5C 347.667,279.167 347.667,279.833 347,280.5C 345.644,279.62 344.144,279.286 342.5,279.5C 342.626,282.595 344.293,284.428 347.5,285C 349.005,287.912 348.338,290.245 345.5,292C 343.044,292.946 341.044,292.446 339.5,290.5C 341.396,289.534 343.396,289.201 345.5,289.5C 345.719,288.325 345.386,287.325 344.5,286.5C 339.317,284.747 338.317,281.747 341.5,277.5 Z"/></g>
<g><path style="opacity:1" fill="#272727" d="M 194.5,277.5 C 195.5,277.5 196.5,277.5 197.5,277.5C 197.34,279.199 197.506,280.866 198,282.5C 199.046,280.91 200.213,279.41 201.5,278C 202.635,277.251 203.635,277.417 204.5,278.5C 202.959,280.204 201.625,282.037 200.5,284C 201.756,285.845 202.756,287.845 203.5,290C 203.15,291.257 202.483,291.591 201.5,291C 200.213,289.59 199.046,288.09 198,286.5C 197.506,288.134 197.34,289.801 197.5,291.5C 196.5,291.5 195.5,291.5 194.5,291.5C 194.5,286.833 194.5,282.167 194.5,277.5 Z"/></g>
<g><path style="opacity:1" fill="#1e1e1e" d="M 206.5,277.5 C 209.247,277.187 211.914,277.52 214.5,278.5C 212.955,279.452 211.288,279.785 209.5,279.5C 209.5,280.833 209.5,282.167 209.5,283.5C 214.833,284.167 214.833,284.833 209.5,285.5C 209.5,286.833 209.5,288.167 209.5,289.5C 211.288,289.215 212.955,289.548 214.5,290.5C 211.914,291.48 209.247,291.813 206.5,291.5C 206.5,286.833 206.5,282.167 206.5,277.5 Z"/></g>
<g><path style="opacity:1" fill="#1f1f1f" d="M 227.5,277.5 C 230.5,277.5 233.5,277.5 236.5,277.5C 235.682,281.475 234.016,285.141 231.5,288.5C 233.5,289.167 235.5,289.833 237.5,290.5C 234.232,291.487 230.898,291.82 227.5,291.5C 228.693,287.451 230.693,283.784 233.5,280.5C 231.025,280.036 229.025,279.036 227.5,277.5 Z"/></g>
<g><path style="opacity:1" fill="#0d0d0d" d="M 168.5,278.5 C 170.527,278.338 172.527,278.505 174.5,279C 173.207,279.49 171.873,279.657 170.5,279.5C 170.5,281.167 170.5,282.833 170.5,284.5C 172.886,284.259 174.886,284.925 176.5,286.5C 177.153,287.807 177.82,289.14 178.5,290.5C 178,290.833 177.5,291.167 177,291.5C 175.48,290.303 174.313,288.803 173.5,287C 172.552,286.517 171.552,286.351 170.5,286.5C 170.785,288.288 170.452,289.955 169.5,291.5C 168.508,287.217 168.174,282.884 168.5,278.5 Z"/></g>
<g><path style="opacity:1" fill="#3f3f3f" d="M 168.5,278.5 C 176.045,276.044 178.711,278.71 176.5,286.5C 174.886,284.925 172.886,284.259 170.5,284.5C 170.5,282.833 170.5,281.167 170.5,279.5C 171.873,279.657 173.207,279.49 174.5,279C 172.527,278.505 170.527,278.338 168.5,278.5 Z"/></g>
<g><path style="opacity:1" fill="#f7f7f7" d="M 171.5,280.5 C 172.5,280.5 173.5,280.5 174.5,280.5C 174.5,281.5 174.5,282.5 174.5,283.5C 173.5,283.5 172.5,283.5 171.5,283.5C 171.5,282.5 171.5,281.5 171.5,280.5 Z"/></g>
<g><path style="opacity:1" fill="#595959" d="M 272.5,278.5 C 270.57,282.373 269.903,286.706 270.5,291.5C 269.514,287.03 269.181,282.363 269.5,277.5C 270.791,277.263 271.791,277.596 272.5,278.5 Z"/></g>
<g><path style="opacity:1" fill="#282828" d="M 313.5,277.5 C 321.382,276.546 324.549,279.879 323,287.5C 319.087,293.617 314.754,293.951 310,288.5C 308.518,283.774 309.685,280.107 313.5,277.5 Z"/></g>
<g><path style="opacity:1" fill="#efefef" d="M 314.5,279.5 C 320.786,280.315 322.12,283.481 318.5,289C 316.866,289.494 315.199,289.66 313.5,289.5C 313.253,286.061 313.586,282.728 314.5,279.5 Z"/></g>
<g><path style="opacity:1" fill="#707070" d="M 292.5,279.5 C 293.833,279.5 295.167,279.5 296.5,279.5C 296.5,283.5 296.5,287.5 296.5,291.5C 295.518,288.038 295.185,284.371 295.5,280.5C 294.209,280.737 293.209,280.404 292.5,279.5 Z"/></g>
<g><path style="opacity:1" fill="#1e1e1e" d="M 184.5,277.5 C 186.911,277.137 188.411,278.137 189,280.5C 189.881,283.93 191.048,287.263 192.5,290.5C 191.675,291.386 190.675,291.719 189.5,291.5C 189.5,290.5 189.5,289.5 189.5,288.5C 187.167,288.5 184.833,288.5 182.5,288.5C 182.5,289.5 182.5,290.5 182.5,291.5C 181.325,291.719 180.325,291.386 179.5,290.5C 180.979,286.06 182.645,281.726 184.5,277.5 Z"/></g>
<g><path style="opacity:1" fill="#d8d8d8" d="M 185.5,281.5 C 186.931,282.78 187.598,284.447 187.5,286.5C 186.5,286.5 185.5,286.5 184.5,286.5C 184.366,284.708 184.699,283.042 185.5,281.5 Z"/></g>
<g><path style="opacity:1" fill="#4c4c4c" d="M 304.5,278.5 C 305.209,277.596 306.209,277.263 307.5,277.5C 307.819,282.363 307.486,287.03 306.5,291.5C 307.097,286.706 306.43,282.373 304.5,278.5 Z"/></g>
<g><path style="opacity:1" fill="#151515" d="M 296.5,291.5 C 296.5,287.5 296.5,283.5 296.5,279.5C 295.167,279.5 293.833,279.5 292.5,279.5C 291.957,279.44 291.624,279.107 291.5,278.5C 295.167,277.167 298.833,277.167 302.5,278.5C 301.311,279.429 299.978,279.762 298.5,279.5C 299.089,283.971 298.423,287.971 296.5,291.5 Z"/></g>
<g><path style="opacity:1" fill="#1f1f1f" d="M 334.5,278.5 C 336.43,282.373 337.097,286.706 336.5,291.5C 335.178,291.67 334.011,291.337 333,290.5C 329.213,280.876 327.713,281.209 328.5,291.5C 327.5,291.5 326.5,291.5 325.5,291.5C 325.5,286.833 325.5,282.167 325.5,277.5C 326.978,277.238 328.311,277.571 329.5,278.5C 331.253,281.005 332.753,283.671 334,286.5C 334.497,283.854 334.664,281.187 334.5,278.5 Z"/></g>
<g><path style="opacity:1" fill="#202020" d="M 279.5,288.5 C 278.931,284.671 279.598,281.337 281.5,278.5C 281.335,281.85 281.502,285.183 282,288.5C 283.667,289.833 285.333,289.833 287,288.5C 287.499,284.848 287.665,281.182 287.5,277.5C 288.5,277.5 289.5,277.5 290.5,277.5C 290.867,281.967 290.367,286.3 289,290.5C 284.782,293.693 281.615,293.026 279.5,288.5 Z"/></g>
<g><path style="opacity:1" fill="#4c4c4c" d="M 325.5,304.5 C 325.5,304.833 325.5,305.167 325.5,305.5C 323.063,301.517 321.896,302.184 322,307.5C 321.182,304.773 321.348,302.106 322.5,299.5C 323.952,300.94 324.952,302.606 325.5,304.5 Z"/></g>
<g><path style="opacity:1" fill="#626262" d="M 282.5,299.5 C 284.453,300.626 285.953,302.292 287,304.5C 287.202,302.744 287.702,301.078 288.5,299.5C 290.33,308.228 288.83,309.228 284,302.5C 283.667,304.167 283.333,305.833 283,307.5C 282.503,304.854 282.336,302.187 282.5,299.5 Z"/></g>
<g><path style="opacity:1" fill="#5b5b5b" d="M 306.5,299.5 C 307.468,301.607 307.802,303.941 307.5,306.5C 308.675,306.281 309.675,306.614 310.5,307.5C 309.311,308.429 307.978,308.762 306.5,308.5C 306.5,305.5 306.5,302.5 306.5,299.5 Z"/></g>
<g><path style="opacity:1" fill="#808080" d="M 317.5,299.5 C 318.765,300.514 319.431,302.014 319.5,304C 319.167,305.5 318.833,307 318.5,308.5C 317.516,305.572 317.183,302.572 317.5,299.5 Z"/></g>
<g><path style="opacity:1" fill="#707070" d="M 332.5,299.5 C 337.787,300.961 337.453,301.628 331.5,301.5C 331.5,303.167 331.5,304.833 331.5,306.5C 332.978,306.762 334.311,306.429 335.5,305.5C 332.869,303.995 333.203,303.329 336.5,303.5C 337.107,307.903 335.44,309.236 331.5,307.5C 328.638,304.313 328.971,301.646 332.5,299.5 Z"/></g>
<g><path style="opacity:1" fill="#626262" d="M 291.5,300.5 C 292.81,302.148 294.143,303.814 295.5,305.5C 294.678,308.718 293.012,309.218 290.5,307C 294.659,306.61 295.159,305.444 292,303.5C 291.517,302.552 291.351,301.552 291.5,300.5 Z"/></g>
<g><path style="opacity:1" fill="#6e6e6e" d="M 310.5,300.5 C 312.288,299.378 314.288,299.211 316.5,300C 315.004,302.201 314.004,304.701 313.5,307.5C 313.062,304.705 312.062,302.372 310.5,300.5 Z"/></g>
<g><path style="opacity:1" fill="#888888" d="M 325.5,305.5 C 325.5,305.167 325.5,304.833 325.5,304.5C 326.163,302.958 326.83,301.291 327.5,299.5C 328.833,302.5 328.833,305.5 327.5,308.5C 326.081,307.995 325.415,306.995 325.5,305.5 Z"/></g>
<g><path style="opacity:1" fill="#787878" d="M 266.5,300.5 C 267.239,300.369 267.906,300.536 268.5,301C 267.594,302.699 267.261,304.533 267.5,306.5C 269.199,306.34 270.866,306.506 272.5,307C 266.397,309.06 264.397,306.893 266.5,300.5 Z"/></g>
<g><path style="opacity:1" fill="#6d6d6d" d="M 275.5,299.5 C 278.83,299.163 280.496,300.663 280.5,304C 279.954,308.178 277.787,309.345 274,307.5C 273.133,304.479 273.633,301.812 275.5,299.5 Z"/></g>
<g><path style="opacity:1" fill="#efefef" d="M 274.5,301.5 C 276.167,301.5 277.833,301.5 279.5,301.5C 279.5,303.167 279.5,304.833 279.5,306.5C 277.833,306.5 276.167,306.5 274.5,306.5C 274.5,304.833 274.5,303.167 274.5,301.5 Z"/></g>
<g><path style="opacity:1" fill="#717171" d="M 297.5,299.5 C 299.344,301.279 300.01,303.612 299.5,306.5C 300.5,306.5 301.5,306.5 302.5,306.5C 302.192,304.076 302.526,301.743 303.5,299.5C 304.647,301.765 304.814,304.098 304,306.5C 302,309.167 300,309.167 298,306.5C 297.503,304.19 297.337,301.857 297.5,299.5 Z"/></g>
</svg>
